<?xml version="1.0" standalone="no"?>
<!DOCTYPE svg PUBLIC "-//W3C//DTD SVG 20010904//EN"
 "http://www.w3.org/TR/2001/REC-SVG-20010904/DTD/svg10.dtd">
<svg version="1.0" xmlns="http://www.w3.org/2000/svg"
 width="677.000000pt" height="677.000000pt" viewBox="0 0 677.000000 677.000000"
 preserveAspectRatio="xMidYMid meet">
<metadata>
Created by potrace 1.11, written by Peter Selinger 2001-2013
</metadata>
<g transform="translate(0.000000,677.000000) scale(0.100000,-0.100000)"
fill="#000000" stroke="none">
<path d="M4165 6703 c-33 -7 -67 -16 -75 -20 -8 -3 -17 -7 -20 -7 -30 -5 -143
-115 -162 -158 -7 -16 -16 -28 -20 -28 -5 0 -8 -6 -8 -14 0 -7 -7 -19 -15 -26
-8 -7 -13 -16 -10 -20 8 -13 -22 -19 -140 -25 -123 -6 -156 -11 -188 -29 -50
-27 -67 -42 -67 -58 0 -25 -16 -31 -87 -34 -58 -2 -120 -9 -168 -18 -11 -2
-40 -7 -65 -11 -25 -4 -49 -11 -55 -15 -5 -4 -32 -13 -59 -20 -26 -7 -71 -31
-99 -53 -39 -31 -61 -41 -93 -42 -51 -3 -81 -25 -150 -113 -27 -35 -75 -87
-106 -117 -31 -30 -64 -68 -73 -85 -15 -30 -16 -30 -45 -15 -17 9 -30 13 -30
11 0 -3 -11 -1 -24 4 -20 7 -27 4 -42 -16 -21 -27 -42 -31 -50 -10 -6 16 -44
33 -93 41 -35 6 -91 -10 -91 -26 0 -5 -7 -9 -16 -9 -8 0 -12 -4 -9 -10 3 -5 2
-10 -3 -10 -14 0 -34 -90 -28 -123 4 -25 3 -26 -32 -22 -66 8 -135 -38 -148
-98 -7 -32 -7 -82 0 -105 5 -14 -6 -35 -42 -77 -36 -42 -49 -66 -50 -91 -1
-19 -3 -38 -6 -42 -2 -4 9 -26 24 -49 40 -58 40 -66 1 -108 -33 -36 -66 -117
-53 -129 3 -4 7 -13 8 -20 3 -23 33 -62 57 -75 13 -7 28 -21 35 -32 11 -17 9
-23 -13 -47 -49 -51 -79 -139 -57 -165 6 -7 11 -16 12 -22 6 -25 15 -40 44
-67 28 -27 36 -29 88 -26 l58 4 -16 -23 c-23 -36 -16 -122 12 -150 26 -26 77
-30 118 -11 23 10 29 8 46 -12 18 -21 24 -34 21 -52 0 -4 15 -16 34 -28 l35
-22 36 21 c19 12 39 21 44 21 4 0 11 -18 15 -40 4 -25 30 -71 72 -131 51 -71
79 -99 127 -129 33 -21 66 -42 71 -47 33 -26 73 -43 165 -68 75 -21 103 -29
140 -42 25 -8 63 -16 85 -18 75 -7 200 -18 225 -19 34 -3 33 -13 -3 -63 -29
-41 -71 -77 -92 -79 -5 0 -37 -5 -70 -9 -33 -5 -63 -8 -66 -8 -3 1 -22 -13
-42 -30 -20 -18 -59 -48 -86 -67 -27 -19 -58 -48 -70 -65 -12 -16 -36 -47 -54
-67 -17 -20 -42 -49 -54 -65 -12 -15 -31 -39 -43 -53 -29 -33 -77 -103 -78
-113 0 -4 -22 -58 -48 -120 -72 -170 -74 -177 -74 -182 0 -3 -7 -22 -16 -43
-8 -20 -17 -44 -19 -52 -2 -8 -15 -47 -28 -87 -22 -63 -32 -107 -63 -298 -3
-22 -6 -44 -6 -50 -1 -20 55 -160 66 -167 6 -4 8 -8 3 -8 -12 0 28 -73 53 -95
12 -10 46 -31 77 -45 l55 -26 -58 -48 c-107 -87 -264 -317 -279 -407 -3 -19
-9 -47 -13 -64 -14 -52 -5 -139 17 -182 25 -50 72 -100 131 -140 56 -37 201
-92 261 -97 24 -2 67 -7 94 -11 43 -5 111 -10 202 -14 l22 -1 -24 -36 c-14
-20 -26 -49 -26 -63 -1 -14 -2 -33 -3 -41 -2 -28 29 -71 64 -89 83 -43 85 -44
202 -37 122 7 145 9 168 19 8 3 37 13 63 21 29 10 66 34 95 61 51 49 61 54 61
28 0 -10 2 -45 5 -78 2 -33 -1 -71 -6 -85 -10 -27 -41 -60 -57 -60 -5 0 -11
-4 -13 -8 -1 -5 -34 -25 -71 -46 -103 -56 -132 -73 -176 -100 -22 -15 -45 -26
-51 -26 -5 0 -10 -4 -10 -9 0 -5 -9 -13 -20 -16 -11 -4 -27 -19 -35 -35 -40
-78 -9 -183 69 -231 45 -29 46 -29 193 -25 122 3 155 7 183 23 60 32 152 94
232 155 65 49 158 98 158 83 0 -6 50 17 78 35 20 13 22 23 22 96 0 47 -7 100
-16 127 -12 35 -13 50 -4 67 9 17 8 26 -4 45 -8 13 -18 36 -22 52 -8 35 -9
267 -1 308 3 17 8 55 12 85 11 90 10 89 63 84 113 -10 216 39 318 153 66 73
79 92 105 158 17 41 18 276 3 345 -7 30 -15 66 -17 80 -9 46 -39 110 -59 124
-19 14 -19 14 -1 20 16 5 67 78 63 88 -1 2 3 15 8 29 6 14 13 50 17 80 4 30 9
58 12 63 3 5 5 79 4 165 -3 190 -2 181 -13 181 -5 0 -7 4 -4 9 12 18 -40 249
-75 336 -4 11 -11 31 -14 44 -25 87 -151 304 -225 384 -29 32 -116 83 -160 94
-27 6 -132 9 -135 3 -7 -11 -129 0 -150 14 -12 8 -29 29 -38 48 -17 36 -13 42
34 52 13 3 51 12 85 20 34 8 72 17 85 20 13 2 49 13 79 22 30 10 57 18 60 19
3 1 12 5 20 8 8 3 42 16 75 28 33 12 72 31 86 43 15 12 39 30 55 41 29 19 132
123 168 168 20 26 37 23 74 -11 25 -23 115 -19 177 9 35 15 45 25 45 43 0 24
0 24 33 7 41 -21 101 -20 149 3 60 29 72 49 72 122 1 69 16 94 59 94 10 0 38
13 61 29 37 26 45 37 59 93 33 126 28 158 -37 233 l-25 29 52 21 c69 26 77 32
117 83 34 42 34 45 33 136 -2 90 -2 93 -35 128 -18 19 -49 43 -68 53 -19 10
-37 19 -39 21 -2 2 12 27 30 56 28 44 34 62 34 109 0 45 -5 62 -28 92 -24 32
-34 37 -68 37 -36 0 -39 2 -29 19 5 11 10 31 10 45 0 39 -35 110 -61 122 -84
40 -146 44 -194 14 l-34 -21 -51 40 c-44 35 -59 41 -98 41 -26 -1 -64 -7 -85
-14 -37 -14 -38 -13 -49 12 -5 15 -14 36 -18 48 -7 16 -1 26 26 49 43 36 54
76 39 135 -19 73 -32 93 -93 138 l-30 24 19 56 c52 147 53 264 3 347 -80 134
-196 183 -349 148z"/>
</g>
</svg>
